<!--?xml version="1.0" encoding="utf-8"?-->
<!-- Generator: Adobe Illustrator 18.0.0, SVG Export Plug-In . SVG Version: 6.00 Build 0)  -->

<svg version="1.1" id="_x32_" xmlns="http://www.w3.org/2000/svg" xmlns:xlink="http://www.w3.org/1999/xlink" x="0px" y="0px" viewBox="0 0 512 512" style="width: 256px; height: 256px; opacity: 1;" xml:space="preserve">
<style type="text/css">
	.st0{fill:#4B4B4B;}
</style>
<g>
	<path class="st0" d="M496.908,220.908H483.59c-14.766-44.547-56.742-76.805-106.178-76.805c-40.295,0-75.578,21.481-95.283,53.524
		c-7.717-4.406-16.623-6.961-26.129-6.961c-9.508,0-18.414,2.554-26.131,6.961c-19.705-32.043-54.986-53.524-95.283-53.524
		c-49.436,0-91.412,32.258-106.178,76.805H15.086c-8.318,0-15.086,6.77-15.086,15.09v21.996c0,8.32,6.768,15.09,15.086,15.09h9.047
		c8.266,53.598,54.574,94.812,110.453,94.812c61.701,0,111.898-50.195,111.898-111.895c0-6.297-0.648-12.433-1.654-18.449
		c2.156-3.988,6.326-6.734,11.17-6.734c4.84,0,9.012,2.746,11.168,6.734c-1.004,6.016-1.654,12.152-1.654,18.449
		c0,61.7,50.197,111.895,111.898,111.895c55.879,0,102.186-41.215,110.453-94.812h9.043c8.322,0,15.092-6.77,15.092-15.09v-21.996
		C512,227.678,505.23,220.908,496.908,220.908z M377.412,191.584c35.522,0,64.42,28.894,64.42,64.418
		c0,35.52-28.898,64.418-64.42,64.418c-35.52,0-64.416-28.898-64.416-64.418C312.996,220.479,341.892,191.584,377.412,191.584z
		 M134.586,191.584c35.52,0,64.418,28.894,64.418,64.418c0,35.52-28.898,64.418-64.418,64.418c-35.524,0-64.42-28.898-64.42-64.418
		C70.166,220.479,99.062,191.584,134.586,191.584z" style="fill: rgb(75, 75, 75);"></path>
	<path class="st0" d="M408.449,253.51v5.129h17.31v-5.129c0-22.844-18.582-41.422-41.422-41.422h-5.131v17.309h5.131
		C397.633,229.397,408.449,240.213,408.449,253.51z" style="fill: rgb(75, 75, 75);"></path>
</g>
</svg>
