<!--?xml version="1.0" encoding="utf-8"?-->
<!-- Generator: Adobe Illustrator 18.1.1, SVG Export Plug-In . SVG Version: 6.00 Build 0)  -->

<svg version="1.1" id="_x32_" xmlns="http://www.w3.org/2000/svg" xmlns:xlink="http://www.w3.org/1999/xlink" x="0px" y="0px" viewBox="0 0 512 512" style="width: 256px; height: 256px; opacity: 1;" xml:space="preserve">
<style type="text/css">
	.st0{fill:#4B4B4B;}
</style>
<g>
	<path class="st0" d="M256,0C114.619,0,0,114.609,0,256c0,141.381,114.619,256,256,256c141.391,0,256-114.619,256-256
		C512,114.609,397.391,0,256,0z M256,440.235c-101.742,0-184.235-82.493-184.235-184.235S154.258,71.765,256,71.765
		S440.235,154.258,440.235,256S357.742,440.235,256,440.235z" style="fill: rgb(75, 75, 75);"></path>
	<path class="st0" d="M256,121.207c-74.438,0-134.793,60.346-134.793,134.793S181.562,390.793,256,390.793
		c74.447,0,134.793-60.346,134.793-134.793S330.447,121.207,256,121.207z M256,353.004c-53.571,0-97.004-43.433-97.004-97.004
		s43.433-97.004,97.004-97.004s97.005,43.433,97.005,97.004S309.571,353.004,256,353.004z" style="fill: rgb(75, 75, 75);"></path>
	<path class="st0" d="M256,204.139c-28.641,0-51.861,23.22-51.861,51.861s23.22,51.861,51.861,51.861
		c28.641,0,51.862-23.22,51.862-51.861S284.641,204.139,256,204.139z M256,288.659c-18.035,0-32.659-14.624-32.659-32.659
		s14.624-32.659,32.659-32.659c18.035,0,32.659,14.624,32.659,32.659S274.035,288.659,256,288.659z" style="fill: rgb(75, 75, 75);"></path>
</g>
</svg>
